<svg version="1.1" id="图层_1" xmlns="http://www.w3.org/2000/svg" x="0" y="0" viewBox="0 0 22.5 24.1" xml:space="preserve"><style>.st1{fill:#022125}.st2{fill:#fff;fill-opacity:.5}.st3{fill:none;stroke:#022125;stroke-width:2;stroke-linecap:round;stroke-linejoin:round;stroke-miterlimit:10}</style><linearGradient id="SVGID_1_" gradientUnits="userSpaceOnUse" x1="4.064" y1="22.905" x2="14.756" y2="16.239" gradientTransform="matrix(1 0 0 -1 0 25.89)"><stop offset="0" stop-color="#fff" stop-opacity=".5"/><stop offset="1" stop-color="#1fb5c9"/></linearGradient><path d="M9.4 12.7c3.5 0 6.3-2.8 6.3-6.3S12.9.1 9.4.1C5.9 0 3.1 2.8 3.1 6.3s2.8 6.4 6.3 6.4z" fill="url(#SVGID_1_)"/><path class="st1" d="M16 4.5c.7 0 1.4.3 1.9.8 1 1 1 2.7 0 3.7-.5.5-1.2.8-1.9.8s-1.4-.3-1.9-.8c-1-1-1-2.7 0-3.7.5-.6 1.2-.8 1.9-.8zm0-1.7c-1.1 0-2.2.4-3 1.3-1.7 1.7-1.7 4.4 0 6.1.8.8 1.9 1.3 3 1.3s2.2-.4 3-1.3c1.7-1.7 1.7-4.4 0-6.1-.9-.9-2-1.3-3-1.3z"/><path class="st2" d="M16 4.5c.7 0 1.4.3 1.9.8 1 1 1 2.7 0 3.7-.5.5-1.2.8-1.9.8s-1.4-.3-1.9-.8c-1-1-1-2.7 0-3.7.5-.6 1.2-.8 1.9-.8z"/><path class="st1" d="M19.2 18.9c.4 0 .8.2 1.2.5.7.7.7 1.7 0 2.4-.3.3-.8.5-1.2.5-.4 0-.8-.2-1.2-.5-.7-.7-.7-1.7 0-2.4.3-.3.7-.5 1.2-.5zm0-1.7c-.8 0-1.7.3-2.4 1-1.4 1.4-1.4 3.5 0 4.8.7.7 1.5 1 2.4 1 .8 0 1.7-.3 2.4-1 1.4-1.4 1.4-3.5 0-4.8-.7-.6-1.5-1-2.4-1z"/><path class="st3" d="M9.2 17l7.2 3.4M9.8 11.5l2.5-1.9"/><path d="M5.3 10.7c.9 0 1.9.3 2.5 1.1 1.4 1.4 1.4 3.7 0 5.2-.7.7-1.6 1.1-2.5 1.1-.9 0-1.9-.3-2.5-1.1-1.4-1.4-1.4-3.7 0-5.2.6-.7 1.5-1.1 2.5-1.1zm0-1.7c-1.3 0-2.7.5-3.7 1.6-2.1 2.1-2.1 5.4 0 7.5 1 1 2.4 1.5 3.7 1.5 1.4 0 2.7-.5 3.7-1.5 2.1-2.1 2.1-5.4 0-7.5C8 9.5 6.7 9 5.3 9z" fill="#1fb5c9"/><path class="st2" d="M5.3 10.7c.9 0 1.9.3 2.5 1.1 1.4 1.4 1.4 3.7 0 5.2-.7.7-1.6 1.1-2.5 1.1s-1.9-.4-2.5-1.1c-1.4-1.4-1.4-3.7 0-5.2.6-.7 1.5-1.1 2.5-1.1z"/></svg>