<svg xmlns="http://www.w3.org/2000/svg" viewBox="0 0 21.3 25.4"><linearGradient id="a" gradientUnits="userSpaceOnUse" x1="12.637" y1="12.842" x2="17.535" y2="1.424" gradientTransform="matrix(1 0 0 -1 0 25.89)"><stop offset="0" stop-color="#fff" stop-opacity=".5"/><stop offset="1" stop-color="#1fb5c9"/></linearGradient><path d="M15.1 25c3.5 0 6.2-2.8 6.2-6.3s-2.8-6.2-6.2-6.2-6.3 2.8-6.3 6.2 2.8 6.3 6.3 6.3z" fill="url(#a)"/><path d="M19.7 11.4c0 3-1 6-2.8 8.4-1.8 2.2-4 3.9-6.5 4.6-2.5-.8-4.8-2.3-6.5-4.6C2 17.4 1 14.3 1 11.4V5.1L10.3 1l9.3 4.2v6.2z" fill="#fff" fill-opacity=".5"/><path d="M19.7 11.4c0 3-1 6-2.8 8.4-1.8 2.2-4 3.9-6.5 4.6-2.5-.8-4.8-2.3-6.5-4.6C2 17.4 1 14.3 1 11.4V5.1L10.3 1l9.3 4.2v6.2z" fill="none" stroke="#022125" stroke-width="2" stroke-linecap="round" stroke-linejoin="round" stroke-miterlimit="10"/><path d="M7.1 12.8l2.6 3.7 4.6-8.3" fill="none" stroke="#1fb5c9" stroke-width="2" stroke-linecap="round" stroke-linejoin="round" stroke-miterlimit="10"/></svg>