<svg xmlns="http://www.w3.org/2000/svg" viewBox="0 0 119.3 112.7"><path d="M101.4 85.4c0 .4.3.7.7.7s.7-.3.7-.7c0-.4-.3-.7-.7-.7-.3 0-.7.3-.7.7zm-16 16.6c0 .8.6 1.4 1.4 1.4s1.4-.6 1.4-1.4-.6-1.4-1.4-1.4-1.4.6-1.4 1.4zm-21.7 8.5c0 1.2 1 2.2 2.2 2.2s2.2-1 2.2-2.2-1-2.2-2.2-2.2-2.2 1-2.2 2.2zm-23.3-1.1c0 1.6 1.3 2.9 2.9 2.9s2.9-1.3 2.9-2.9-1.3-2.9-2.9-2.9-2.9 1.3-2.9 2.9zM19.7 98.8c0 2 1.6 3.6 3.6 3.6s3.6-1.6 3.6-3.6-1.6-3.6-3.6-3.6-3.6 1.6-3.6 3.6zM5.4 80.7c0 2.4 1.9 4.4 4.4 4.4s4.4-1.9 4.4-4.4-1.9-4.4-4.4-4.4-4.4 2-4.4 4.4zM0 58.5c0 2.8 2.3 5.1 5.1 5.1s5.1-2.3 5.1-5.1-2.3-5.1-5.1-5.1S0 55.7 0 58.5zm4.4-22c0 3.2 2.6 5.8 5.8 5.8s5.8-2.6 5.8-5.8-2.6-5.8-5.8-5.8-5.8 2.6-5.8 5.8zm13.3-17.7c0 3.6 2.9 6.5 6.5 6.5s6.5-2.9 6.5-6.5-2.9-6.5-6.5-6.5-6.5 2.9-6.5 6.5zM37.2 8.6c0 4 3.2 7.2 7.2 7.2s7.2-3.2 7.2-7.2-3.2-7.2-7.2-7.2-7.2 3.2-7.2 7.2zM59.1 8c0 4.4 3.6 8 8 8s8-3.6 8-8-3.6-8-8-8-8 3.6-8 8zm20 9c0 4.8 3.9 8.7 8.7 8.7s8.7-3.9 8.7-8.7-3.9-8.7-8.7-8.7-8.7 3.9-8.7 8.7zm14.3 16.9c0 5.2 4.2 9.4 9.4 9.4s9.4-4.2 9.4-9.4-4.2-9.4-9.4-9.4-9.4 4.2-9.4 9.4zm5.6 22c0 5.6 4.5 10.2 10.2 10.2s10.2-4.5 10.2-10.2-4.5-10.2-10.2-10.2S99 50.3 99 55.9z" fill="#1fb5c9"/></svg>