<svg version="1.1" id="图层_1" xmlns="http://www.w3.org/2000/svg" x="0" y="0" viewBox="0 0 24.4 22" xml:space="preserve"><style>.st1{fill:none;stroke:#1fb5c9;stroke-width:2;stroke-linecap:round;stroke-linejoin:round;stroke-miterlimit:10}</style><linearGradient id="SVGID_1_" gradientUnits="userSpaceOnUse" x1="19.643" y1="17.562" x2="17.007" y2="5.704" gradientTransform="matrix(1 0 0 -1 0 23.89)"><stop offset="0" stop-color="#fff" stop-opacity=".5"/><stop offset="1" stop-color="#1fb5c9"/></linearGradient><path d="M18.3 18.4c3.4 0 6.1-2.7 6.1-6.1 0-3.4-2.7-6.1-6.1-6.1s-6.1 2.7-6.1 6.1c0 3.4 2.7 6.1 6.1 6.1z" fill="url(#SVGID_1_)"/><path class="st1" d="M1 16.6c-.2-1.9.5-3.7 2-5.2.8-.9 1.9-1.5 2.9-1.7.2-.1.4-.1.7-.2"/><path d="M7.2 21c-.2-2.2.6-4.4 2.3-6 3-3 8-3 11 0 1.5 1.5 2.3 3.5 2.3 5.5" fill="#fff" fill-opacity=".5"/><path class="st1" d="M7.2 21c-.2-2.2.6-4.4 2.3-6 3-3 8-3 11 0 1.5 1.5 2.3 3.5 2.3 5.5"/><path d="M11.4 2.8c-.2-.2-.2-.3-.4-.5C9.3.6 6.5.6 4.8 2.3 3.1 4 3.1 6.8 4.8 8.5c.4.4.8.7 1.3.9.9.4 1.9.5 2.9.2" fill="none" stroke="#022125" stroke-width="2" stroke-linecap="round" stroke-linejoin="round" stroke-miterlimit="10"/><path d="M15 4.8c.9 0 1.8.3 2.4 1.1 1.4 1.4 1.4 3.6 0 5-.7.7-1.5 1.1-2.4 1.1-.9 0-1.8-.3-2.4-1.1-1.4-1.4-1.4-3.6 0-5 .6-.8 1.5-1.1 2.4-1.1zm0-1.6c-1.3 0-2.6.5-3.6 1.5-2 2-2 5.2 0 7.3 1 1 2.3 1.5 3.6 1.5s2.6-.5 3.6-1.5c2-2 2-5.2 0-7.3-1-1-2.3-1.5-3.6-1.5z" fill="#022125"/></svg>