<svg xmlns="http://www.w3.org/2000/svg" viewBox="0 0 18 18"><path d="M9 17c4.4 0 8-3.6 8-8s-3.6-8-8-8-8 3.6-8 8 3.6 8 8 8z" fill="none" stroke="#1fb5c9" stroke-width="2" stroke-linecap="round" stroke-linejoin="round" stroke-miterlimit="10"/><path d="M7.3 5.4c.5-.4 1.1-.6 1.9-.6.7 0 1.3.2 1.8.6.5.4.7 1 .7 1.7s-.2 1.3-.7 1.8l-.4.4c-.3.3-.5.5-.7.6-.2.2-.3.5-.3.8 0 .1-.1.2-.1.3H9c-.1 0-.2-.1-.3-.1-.1-.1-.1-.2-.1-.3.1-.5.4-1 .8-1.4l.4-.3.2-.2.2-.2c.1-.1.3-.3.4-.5.2-.2.2-.5.2-1 0-.4-.2-.7-.4-1-.4-.3-.8-.4-1.2-.4-.4 0-.8.2-1.1.4-.2.3-.4.5-.4.9 0 .1-.1.2-.1.3h-.8c-.1 0-.1 0-.1-.1-.1-.7.2-1.3.6-1.7zm1.2 8c-.2-.2-.2-.3-.2-.6 0-.2.1-.4.2-.6.2-.1.3-.2.6-.2.2 0 .4.1.5.2.2.2.2.3.2.6s-.1.4-.2.6c-.2.2-.3.2-.5.2-.3 0-.4-.1-.6-.2z" fill="#022125"/></svg>