<svg version="1.1" id="图层_1" xmlns="http://www.w3.org/2000/svg" x="0" y="0" viewBox="0 0 24.3 23" xml:space="preserve"><style>.st3{fill:none;stroke:#1fb5c9;stroke-width:2;stroke-linecap:round;stroke-linejoin:round;stroke-miterlimit:10}.st4{fill:#022125}</style><linearGradient id="SVGID_1_" gradientUnits="userSpaceOnUse" x1="3.995" y1="13.475" x2="9.146" y2="1.466" gradientTransform="matrix(1 0 0 -1 0 23.89)"><stop offset="0" stop-color="#fff" stop-opacity=".5"/><stop offset="1" stop-color="#1fb5c9"/></linearGradient><path d="M6.6 23c3.6 0 6.6-2.9 6.6-6.6s-2.9-6.6-6.6-6.6c-3.7.1-6.6 3-6.6 6.6S2.9 23 6.6 23z" fill="url(#SVGID_1_)"/><path d="M23.2 1H5.6v20.9h17.6V1z" fill="#fff" fill-opacity=".5"/><path d="M23.2 1H5.6v20.9h17.6V1z" fill="none" stroke="#022125" stroke-width="2" stroke-linecap="round" stroke-linejoin="round" stroke-miterlimit="10"/><path class="st3" d="M23.3 8.4H5.6M23.3 14.5H5.6"/><path class="st4" d="M19.4 5.3c-.3 0-.4-.1-.6-.3-.2-.2-.3-.4-.3-.6 0-.1 0-.3.1-.4.1-.1.1-.2.2-.3.4-.4.9-.4 1.2 0 .1.1.2.2.2.3 0 .1.1.3.1.4 0 .3-.1.4-.3.6-.2.2-.4.3-.6.3zM16.7 5.3c-.3 0-.4-.1-.6-.3-.2-.2-.3-.4-.3-.6 0-.1 0-.3.1-.4.1 0 .1-.1.2-.2.4-.4.9-.4 1.2 0 .1.1.2.2.2.3.1.1.1.3.1.4 0 .3-.1.4-.3.6-.1.1-.4.2-.6.2zM19.4 12.1c-.3 0-.4-.1-.6-.3-.2-.2-.3-.4-.3-.6s.1-.4.3-.6c.4-.4.9-.4 1.2 0 .2.2.3.4.3.6 0 .3-.1.4-.3.6-.1.2-.4.3-.6.3zM16.7 12.1c-.3 0-.4-.1-.6-.3-.2-.2-.3-.4-.3-.6s.1-.4.3-.6c.4-.4.9-.4 1.2 0 .2.2.3.4.3.6 0 .1 0 .3-.1.4 0 .1-.1.2-.2.3-.1.1-.4.2-.6.2zM19.4 19.1c-.3 0-.4-.1-.6-.3-.1-.1-.2-.2-.2-.3 0-.1-.1-.2-.1-.4 0-.3.1-.4.3-.6.3-.3.6-.4 1-.2.1 0 .2.1.3.2.2.2.3.4.3.6 0 .1 0 .3-.1.4-.1.1-.1.2-.2.3-.2.2-.5.3-.7.3zM16.7 19.1c-.1 0-.3 0-.4-.1-.1-.1-.2-.1-.3-.2v-.3c-.1-.1-.1-.2-.1-.4v-.2c0-.1 0-.1.1-.2 0-.1 0-.1.1-.2 0-.1.1-.1.1-.2.1-.1.2-.2.3-.2.4-.2.7-.1 1 .2 0 0 .1.1.1.2s.1.1.1.2.1.1.1.2v.2c0 .1 0 .3-.1.4-.1.1-.1.2-.2.3-.3.2-.6.3-.8.3z"/></svg>